<?xml version="1.0" encoding="utf-8"?>
<!-- Generator: Adobe Illustrator 21.1.0, SVG Export Plug-In . SVG Version: 6.00 Build 0)  -->
<svg version="1.1" id="Layer_1" xmlns="http://www.w3.org/2000/svg" xmlns:xlink="http://www.w3.org/1999/xlink" x="0px" y="0px"
	 viewBox="0 0 150 25" style="enable-background:new 0 0 150 25;" xml:space="preserve">
<style type="text/css">
	.st0{fill:#D1D1D1;}
	.st1{fill:none;stroke:#686868;stroke-width:2;stroke-miterlimit:10;}
</style>
<g>
	<path class="st0" d="M23,2v21H2V2H23 M25,0H0v25h25V0L25,0z"/>
</g>
<g>
	<path class="st0" d="M48,2v21H27V2H48 M50,0H25v25h25V0L50,0z"/>
</g>
<g>
	<path class="st0" d="M73,2v21H52V2H73 M75,0H50v25h25V0L75,0z"/>
</g>
<g>
	<path class="st0" d="M98,2v21H77V2H98 M100,0H75v25h25V0L100,0z"/>
</g>
<g>
	<path class="st0" d="M123,2v21h-21V2H123 M125,0h-25v25h25V0L125,0z"/>
</g>
<g>
	<path class="st0" d="M148,2v21h-21V2H148 M150,0h-25v25h25V0L150,0z"/>
</g>
<rect x="1" y="9" class="st1" width="7" height="7"/>
<rect x="34" y="9" class="st1" width="7" height="7"/>
<rect x="67" y="9" class="st1" width="7" height="7"/>
<rect x="84" y="1" class="st1" width="7" height="7"/>
<rect x="109" y="9" class="st1" width="7" height="7"/>
<rect x="134" y="17" class="st1" width="7" height="7"/>
</svg>
